<?xml version="1.0" encoding="UTF-8" standalone="no"?>
<!-- Created with Inkscape (http://www.inkscape.org/) -->

<svg
   width="300"
   height="100"
   viewBox="0 0 79.375 26.458332"
   version="1.1"
   id="svg321"
   inkscape:version="1.2 (dc2aedaf03, 2022-05-15)"
   sodipodi:docname="cogio.svg"
   xmlns:inkscape="http://www.inkscape.org/namespaces/inkscape"
   xmlns:sodipodi="http://sodipodi.sourceforge.net/DTD/sodipodi-0.dtd"
   xmlns:xlink="http://www.w3.org/1999/xlink"
   xmlns="http://www.w3.org/2000/svg"
   xmlns:svg="http://www.w3.org/2000/svg">
  <sodipodi:namedview
     id="namedview323"
     pagecolor="#ffffff"
     bordercolor="#111111"
     borderopacity="1"
     inkscape:showpageshadow="0"
     inkscape:pageopacity="0"
     inkscape:pagecheckerboard="1"
     inkscape:deskcolor="#d1d1d1"
     inkscape:document-units="mm"
     showgrid="false"
     inkscape:zoom="2.1543544"
     inkscape:cx="232.08809"
     inkscape:cy="91.906885"
     inkscape:window-width="1920"
     inkscape:window-height="1009"
     inkscape:window-x="-8"
     inkscape:window-y="-8"
     inkscape:window-maximized="1"
     inkscape:current-layer="layer1" />
  <defs
     id="defs318">
    <linearGradient
       inkscape:collect="always"
       xlink:href="#grad6"
       id="linearGradient467"
       gradientUnits="userSpaceOnUse"
       gradientTransform="matrix(2.1752,0,0,0.45973,-17.6,-304.42)"
       x1="8.0914001"
       y1="662.19"
       x2="154.53"
       y2="662.19" />
    <linearGradient
       id="grad6"
       x1="8.0914001"
       x2="154.53"
       y1="662.19"
       y2="662.19"
       gradientTransform="matrix(2.1752,0,0,0.45973,-17.6,-304.42)"
       gradientUnits="userSpaceOnUse">
      <stop
         stop-color="#7b43ff"
         offset="0"
         id="stop95" />
      <stop
         stop-color="#32bbed"
         offset="1"
         id="stop97" />
    </linearGradient>
  </defs>
  <g
     inkscape:label="Camada 1"
     inkscape:groupmode="layer"
     id="layer1"
     transform="translate(-36.735238,-139.09726)">
    <g
       id="g473"
       transform="matrix(0.24197782,0,0,0.24197782,37.884385,144.18146)">
      <path
         d="m 28.728,52.488 c -0.5281,0 -1.0919,-0.1559 -1.692,-0.468 -0.6001,-0.3121 -1.2359,-0.6599 -1.908,-1.044 L 1.728,37.224 C 1.152,36.8399 0.72,36.3481 0.432,35.748 0.144,35.1479 0,34.5359 0,33.912 0,33.2399 0.144,32.6041 0.432,32.004 0.72,31.4039 1.152,30.9359 1.728,30.6 l 23.4,-13.464 c 0.6239,-0.3841 1.2121,-0.684 1.764,-0.9 0.5519,-0.216 1.0681,-0.324 1.548,-0.324 0.9601,0 1.8601,0.468 2.7,1.404 0.8399,0.936 1.26,1.908 1.26,2.916 0,0.4799 -0.1321,0.9479 -0.396,1.404 -0.2639,0.4561 -0.6599,0.8521 -1.188,1.188 L 5.832,37.296 5.328,30.096 30.744,45.288 c 0.576,0.3359 0.9839,0.756 1.224,1.26 0.2401,0.504 0.36,1.0199 0.36,1.548 0,1.152 -0.396,2.1719 -1.188,3.06 -0.792,0.8881 -1.5959,1.332 -2.412,1.332 z m 13.32,14.832 c -0.8161,0 -1.656,-0.3359 -2.52,-1.008 -0.864,-0.6721 -1.296,-1.5361 -1.296,-2.592 0,-0.576 0.144,-1.152 0.432,-1.728 L 67.89597,2.16 c 0.3359,-0.6721 0.792,-1.1999 1.368,-1.584 0.576,-0.3841 1.1761,-0.576 1.8,-0.576 0.8161,0 1.6441,0.324 2.484,0.972 0.8399,0.648 1.26,1.5239 1.26,2.628 0,0.576 -0.144,1.152 -0.432,1.728 L 45.216,65.16 c -0.3359,0.6721 -0.7801,1.1999 -1.332,1.584 -0.5519,0.3841 -1.1639,0.576 -1.836,0.576 z m 95.68797,-57.6 c 1.2481,0.6239 1.98,1.6081 2.196,2.952 0.216,1.3439 -0.1321,2.5679 -1.044,3.672 -0.6239,0.864 -1.4281,1.3439 -2.412,1.44 -0.9839,0.0961 -1.98,-0.0961 -2.988,-0.576 -1.152,-0.5281 -2.3641,-0.936 -3.636,-1.224 -1.2719,-0.288 -2.6039,-0.432 -3.996,-0.432 -2.592,0 -4.9079,0.4079 -6.948,1.224 -2.0401,0.8161 -3.78,1.98 -5.22,3.492 -1.44,1.512 -2.5319,3.3001 -3.276,5.364 -0.7441,2.0639 -1.116,4.3441 -1.116,6.84 0,2.9279 0.4201,5.472 1.26,7.632 0.8399,2.16 2.0041,3.96 3.492,5.4 1.4879,1.44 3.24,2.5081 5.256,3.204 2.016,0.6959 4.2001,1.044 6.552,1.044 1.296,0 2.592,-0.1199 3.888,-0.36 1.296,-0.2401 2.5441,-0.6721 3.744,-1.296 1.008,-0.4799 2.0041,-0.648 2.988,-0.504 0.9839,0.144 1.8119,0.648 2.484,1.512 0.9601,1.1999 1.3079,2.4361 1.044,3.708 -0.2639,1.2719 -0.9961,2.196 -2.196,2.772 -1.2481,0.6239 -2.5319,1.1401 -3.852,1.548 -1.3201,0.4079 -2.6521,0.72 -3.996,0.936 -1.3439,0.216 -2.7119,0.324 -4.104,0.324 -3.456,0 -6.732,-0.5519 -9.828,-1.656 -3.096,-1.1041 -5.8561,-2.736 -8.28,-4.896 -2.4239,-2.16 -4.3319,-4.86 -5.724,-8.1 -1.3921,-3.24 -2.088,-6.9959 -2.088,-11.268 0,-3.6961 0.6361,-7.1039 1.908,-10.224 1.2719,-3.1201 3.0719,-5.8201 5.4,-8.1 2.3281,-2.2799 5.076,-4.0561 8.244,-5.328 3.168,-1.2719 6.624,-1.908 10.368,-1.908 2.1121,0 4.176,0.2401 6.192,0.72 2.016,0.4799 3.9121,1.1761 5.688,2.088 z m 56.232,22.752 c 0,3.6 -0.6001,6.9599 -1.8,10.08 -1.1999,3.1201 -2.8919,5.868 -5.076,8.244 -2.1841,2.376 -4.7761,4.2361 -7.776,5.58 -2.9999,1.3439 -6.2759,2.016 -9.828,2.016 -3.5521,0 -6.8159,-0.6721 -9.792,-2.016 -2.9761,-1.3439 -5.5559,-3.204 -7.74,-5.58 -2.1841,-2.376 -3.8761,-5.1239 -5.076,-8.244 -1.1999,-3.1201 -1.8,-6.48 -1.8,-10.08 0,-3.6 0.6001,-6.9599 1.8,-10.08 1.1999,-3.1201 2.8919,-5.868 5.076,-8.244 2.1841,-2.376 4.7639,-4.2361 7.74,-5.58 2.9761,-1.3439 6.2399,-2.016 9.792,-2.016 3.5521,0 6.8281,0.6721 9.828,2.016 2.9999,1.3439 5.5919,3.204 7.776,5.58 2.1841,2.376 3.8761,5.1239 5.076,8.244 1.1999,3.1201 1.8,6.48 1.8,10.08 z m -9.36,0 c 0,-3.2159 -0.648,-6.1319 -1.944,-8.748 -1.296,-2.6161 -3.0719,-4.6919 -5.328,-6.228 -2.2561,-1.5361 -4.8719,-2.304 -7.848,-2.304 -2.9761,0 -5.5919,0.7679 -7.848,2.304 -2.2561,1.5361 -4.0201,3.6 -5.292,6.192 -1.2719,2.592 -1.908,5.5199 -1.908,8.784 0,3.2159 0.6361,6.1319 1.908,8.748 1.2719,2.6161 3.0359,4.6919 5.292,6.228 2.2561,1.5361 4.8719,2.304 7.848,2.304 2.9761,0 5.5919,-0.7679 7.848,-2.304 2.2561,-1.5361 4.032,-3.6119 5.328,-6.228 1.296,-2.6161 1.944,-5.5321 1.944,-8.748 z m 41.4,25.92 c -3.6479,0 -7.056,-0.6721 -10.224,-2.016 -3.168,-1.3439 -5.9519,-3.204 -8.352,-5.58 -2.4001,-2.376 -4.284,-5.1239 -5.652,-8.244 -1.368,-3.1201 -2.052,-6.48 -2.052,-10.08 0,-3.6 0.684,-6.9599 2.052,-10.08 1.368,-3.1201 3.2519,-5.868 5.652,-8.244 2.4001,-2.376 5.184,-4.2361 8.352,-5.58 3.168,-1.3439 6.5761,-2.016 10.224,-2.016 2.2561,0 4.4399,0.2401 6.552,0.72 2.1121,0.4799 4.0561,1.1999 5.832,2.16 0.72,0.3841 1.26,0.9 1.62,1.548 0.36,0.648 0.54,1.3079 0.54,1.98 0,1.152 -0.3841,2.1841 -1.152,3.096 -0.7679,0.9119 -1.7521,1.368 -2.952,1.368 -0.3841,0 -0.7801,-0.0479 -1.188,-0.144 -0.4079,-0.0961 -0.8039,-0.2401 -1.188,-0.432 -1.1999,-0.5281 -2.4721,-0.936 -3.816,-1.224 -1.3439,-0.288 -2.7601,-0.432 -4.248,-0.432 -3.1201,0 -5.9641,0.7801 -8.532,2.34 -2.5679,1.5599 -4.608,3.6479 -6.12,6.264 -1.512,2.6161 -2.268,5.508 -2.268,8.676 0,3.1201 0.756,6.0001 2.268,8.64 1.512,2.6399 3.5521,4.7401 6.12,6.3 2.5679,1.5599 5.4119,2.34 8.532,2.34 1.44,0 3.024,-0.144 4.752,-0.432 1.728,-0.288 3.1439,-0.6721 4.248,-1.152 l -0.648,2.16 V 38.016 l 1.224,1.08 h -7.992 c -1.2481,0 -2.2921,-0.4079 -3.132,-1.224 -0.8399,-0.8161 -1.26,-1.8479 -1.26,-3.096 0,-1.2481 0.4201,-2.2799 1.26,-3.096 0.8399,-0.8161 1.8839,-1.224 3.132,-1.224 h 11.808 c 1.2481,0 2.2799,0.4201 3.096,1.26 0.8161,0.8399 1.224,1.8839 1.224,3.132 v 15.264 c 0,0.9601 -0.2279,1.7521 -0.684,2.376 -0.4561,0.6239 -0.972,1.1279 -1.548,1.512 -2.2079,1.3439 -4.6199,2.412 -7.236,3.204 -2.6161,0.792 -5.364,1.188 -8.244,1.188 z m 35.352,-5.112 c 0,1.2481 -0.4561,2.2921 -1.368,3.132 -0.9119,0.8399 -1.9681,1.26 -3.168,1.26 -1.3439,0 -2.4239,-0.4201 -3.24,-1.26 -0.8161,-0.8399 -1.224,-1.8839 -1.224,-3.132 V 11.664 c 0,-1.2481 0.432,-2.2921 1.296,-3.132 0.864,-0.8399 1.9681,-1.26 3.312,-1.26 1.152,0 2.1719,0.4201 3.06,1.26 0.8881,0.8399 1.332,1.8839 1.332,3.132 z m 57.168,-20.808 c 0,3.6 -0.6001,6.9599 -1.8,10.08 -1.1999,3.1201 -2.8919,5.868 -5.076,8.244 -2.1841,2.376 -4.7761,4.2361 -7.776,5.58 -2.9999,1.3439 -6.2759,2.016 -9.828,2.016 -3.5521,0 -6.8159,-0.6721 -9.792,-2.016 -2.9761,-1.3439 -5.5559,-3.204 -7.74,-5.58 -2.1841,-2.376 -3.8761,-5.1239 -5.076,-8.244 -1.1999,-3.1201 -1.8,-6.48 -1.8,-10.08 0,-3.6 0.6001,-6.9599 1.8,-10.08 1.1999,-3.1201 2.8919,-5.868 5.076,-8.244 2.1841,-2.376 4.7639,-4.2361 7.74,-5.58 2.9761,-1.3439 6.2399,-2.016 9.792,-2.016 3.5521,0 6.8281,0.6721 9.828,2.016 2.9999,1.3439 5.5919,3.204 7.776,5.58 2.1841,2.376 3.8761,5.1239 5.076,8.244 1.1999,3.1201 1.8,6.48 1.8,10.08 z m -9.36,0 c 0,-3.2159 -0.648,-6.1319 -1.944,-8.748 -1.296,-2.6161 -3.0719,-4.6919 -5.328,-6.228 -2.2561,-1.5361 -4.8719,-2.304 -7.848,-2.304 -2.9761,0 -5.5919,0.7679 -7.848,2.304 -2.2561,1.5361 -4.0201,3.6 -5.292,6.192 -1.2719,2.592 -1.908,5.5199 -1.908,8.784 0,3.2159 0.6361,6.1319 1.908,8.748 1.2719,2.6161 3.0359,4.6919 5.292,6.228 2.2561,1.5361 4.8719,2.304 7.848,2.304 2.9761,0 5.5919,-0.7679 7.848,-2.304 2.2561,-1.5361 4.032,-3.6119 5.328,-6.228 1.296,-2.6161 1.944,-5.5321 1.944,-8.748 z"
         fill="url(#grad6)"
         id="path102-3"
         style="fill:url(#linearGradient467)" />
    </g>
  </g>
</svg>
